<svg width="85" height="73" viewBox="0 0 85 73" fill="none" xmlns="http://www.w3.org/2000/svg">
<path d="M4.47363 7.14424C4.47363 7.14424 6.95758 24.2335 24.053 21.7715C24.053 21.7715 27.925 5.55117 4.47363 7.14424Z" fill="#E4D4EB"/>
<path d="M6.15393 5.6236C6.15393 5.6236 8.63788 22.7129 25.7333 20.2509C25.7333 20.2509 29.6053 4.03053 6.15393 5.6236Z" stroke="#4C4A4D" stroke-width="0.75" stroke-miterlimit="10" stroke-linecap="round"/>
<path d="M12.4003 9.96834C12.4003 9.96834 19.1947 13.8062 25.7333 20.2509C25.7333 20.2509 36.2901 28.2886 43.5958 45.3779" stroke="#4C4A4D" stroke-width="0.75" stroke-miterlimit="10" stroke-linecap="round"/>
<path d="M17.2952 13.1545C17.2952 13.1545 17.5509 11.3804 17.2221 10.0407" stroke="#4C4A4D" stroke-width="0.75" stroke-miterlimit="10" stroke-linecap="round"/>
<path d="M20.6558 15.4717C20.6558 15.4717 20.9846 14.0596 20.7289 13.0096" stroke="#4C4A4D" stroke-width="0.75" stroke-miterlimit="10" stroke-linecap="round"/>
<path d="M12.8752 12.0321C12.8752 12.0321 13.8615 12.539 15.834 12.1769" stroke="#4C4A4D" stroke-width="0.75" stroke-miterlimit="10" stroke-linecap="round"/>
<path d="M16.4551 14.7475C16.4551 14.7475 17.3318 14.9648 18.7929 14.3131" stroke="#4C4A4D" stroke-width="0.75" stroke-miterlimit="10" stroke-linecap="round"/>
<path d="M80.5263 15.8699C80.5263 15.8699 77.6771 35.3126 58.2438 32.5247C58.2438 32.5609 53.8238 14.0596 80.5263 15.8699Z" fill="#E4D4EB"/>
<path d="M78.5903 14.132C78.5903 14.132 75.7411 33.5747 56.3078 30.7868C56.3078 30.7868 51.8879 12.3217 78.5903 14.132Z" stroke="#4C4A4D" stroke-width="0.75" stroke-miterlimit="10" stroke-linecap="round"/>
<path d="M71.5037 19.0923C71.5037 19.0923 63.7597 23.437 56.3078 30.823C56.3078 30.823 39.7238 43.6038 32.0528 70.5049" stroke="#4C4A4D" stroke-width="0.75" stroke-miterlimit="10" stroke-linecap="round"/>
<path d="M65.9149 22.7129C65.9149 22.7129 65.6226 20.7215 65.9879 19.2009" stroke="#4C4A4D" stroke-width="0.75" stroke-miterlimit="10" stroke-linecap="round"/>
<path d="M62.1159 25.3559C62.1159 25.3559 61.7141 23.7629 62.0063 22.5318" stroke="#4C4A4D" stroke-width="0.75" stroke-miterlimit="10" stroke-linecap="round"/>
<path d="M70.9558 21.4457C70.9558 21.4457 69.86 22.025 67.5587 21.5905" stroke="#4C4A4D" stroke-width="0.75" stroke-miterlimit="10" stroke-linecap="round"/>
<path d="M66.8646 24.5232C66.8646 24.5232 65.8783 24.7766 64.198 24.0163" stroke="#4C4A4D" stroke-width="0.75" stroke-miterlimit="10" stroke-linecap="round"/>
</svg>
